<?xml version="1.0" encoding="utf-8"?>
<!-- Generator: Adobe Illustrator 16.0.0, SVG Export Plug-In . SVG Version: 6.00 Build 0)  -->
<!DOCTYPE svg PUBLIC "-//W3C//DTD SVG 1.1//EN" "http://www.w3.org/Graphics/SVG/1.1/DTD/svg11.dtd">
<svg version="1.1" id="buscar" xmlns="http://www.w3.org/2000/svg" xmlns:xlink="http://www.w3.org/1999/xlink" x="0px" y="0px"
	 width="595.279px" height="841.891px" viewBox="0 0 595.279 841.891" enable-background="new 0 0 595.279 841.891"
	 xml:space="preserve">
<g>
	<path fill="#FFFFFF" d="M297.521,199.501c-70.005,0-126.676,56.67-126.676,126.675c0,36.431,18.216,69.41,36.193,99.888
		c21.906,37.859,48.099,73.22,78.577,104.531c6.548,6.786,17.382,6.786,24.168,0c26.788-26.431,50.361-56.313,70.362-88.221
		c21.311-34.407,44.408-74.291,44.408-116.199C424.197,256.41,367.526,199.501,297.521,199.501L297.521,199.501z M297.521,399.634
		c-42.384,0-76.91-34.407-76.91-76.91c0-42.384,34.407-76.91,76.91-76.91c42.384,0,76.91,34.169,76.91,76.91
		C374.431,365.465,339.905,399.634,297.521,399.634L297.521,399.634z"/>
</g>
</svg>
