<?xml version="1.0" encoding="utf-8"?>
<!-- Generator: Adobe Illustrator 16.0.0, SVG Export Plug-In . SVG Version: 6.00 Build 0)  -->
<!DOCTYPE svg PUBLIC "-//W3C//DTD SVG 1.1//EN" "http://www.w3.org/Graphics/SVG/1.1/DTD/svg11.dtd">
<svg version="1.1" id="recorrido" xmlns="http://www.w3.org/2000/svg" xmlns:xlink="http://www.w3.org/1999/xlink" x="0px" y="0px"
	 width="595.279px" height="841.891px" viewBox="0 0 595.279 841.891" enable-background="new 0 0 595.279 841.891"
	 xml:space="preserve">
<path fill="#FFFFFF" d="M433.483,526.071c1.19-4.643-1.071-9.524-5.238-11.786l-132.509-70.124
	c-3.453-1.786-7.62-1.548-10.953,0.595L183.465,514.88c-3.81,2.62-5.477,7.382-4.048,11.787c1.31,4.405,5.477,7.382,10.001,7.382
	h233.826C428.125,534.049,432.292,530.715,433.483,526.071z"/>
<path fill="#FFFFFF" d="M462.294,507.022c2.263,0,4.524-0.714,6.43-2.143c3.214-2.5,4.762-6.667,3.929-10.597l-31.193-140.367
	c-0.714-3.453-3.214-6.191-6.429-7.5c-3.334-1.31-7.024-0.833-9.882,1.19L323.832,417.73c-2.977,2.144-4.763,5.596-4.524,9.286
	c0.238,3.691,2.382,7.024,5.596,8.691l132.51,70.124C458.842,506.665,460.627,507.022,462.294,507.022z"/>
<path fill="#FFFFFF" d="M389.194,323.438h-96.077c-17.502,31.669-43.337,61.909-53.933,73.696
	c-5.953,6.667-14.525,10.477-23.454,10.477c-8.93,0-17.501-3.81-23.454-10.477c-4.048-4.524-10.477-11.905-17.739-20.954
	L148.82,490.95c-0.952,4.286,0.834,8.572,4.405,11.072c1.786,1.19,3.811,1.785,5.834,1.785c2.143,0,4.167-0.595,5.953-1.904
	l230.016-159.297c3.81-2.619,5.477-7.381,4.048-11.786C397.885,326.415,393.718,323.438,389.194,323.438z"/>
<path fill="#FFFFFF" d="M215.611,386.657c2.977,0,5.834-1.31,7.857-3.453c6.786-7.5,65.838-74.529,65.838-112.27
	c0-40.598-33.098-73.696-73.695-73.696c-40.599,0-73.695,33.098-73.695,73.696c0,37.86,59.17,104.769,65.838,112.27
	C209.777,385.347,212.634,386.657,215.611,386.657z M183.942,270.815c0-17.501,14.168-31.55,31.55-31.55
	c17.501,0,31.55,14.167,31.55,31.55s-14.168,31.55-31.55,31.55S183.942,288.316,183.942,270.815z"/>
</svg>
