<?xml version="1.0" encoding="utf-8"?>
<!-- Generator: Adobe Illustrator 16.0.0, SVG Export Plug-In . SVG Version: 6.00 Build 0)  -->
<!DOCTYPE svg PUBLIC "-//W3C//DTD SVG 1.1//EN" "http://www.w3.org/Graphics/SVG/1.1/DTD/svg11.dtd">
<svg version="1.1" id="configurar" xmlns="http://www.w3.org/2000/svg" xmlns:xlink="http://www.w3.org/1999/xlink" x="0px" y="0px"
	 width="595.279px" height="841.891px" viewBox="0 0 595.279 841.891" enable-background="new 0 0 595.279 841.891"
	 xml:space="preserve">
<path fill="#FFFFFF" d="M458.485,345.583l-11.549-2.619c-3.69-0.833-6.548-3.81-7.381-7.5c-0.834-3.453-1.667-6.786-2.738-10.12
	c-1.19-3.691-0.238-7.62,2.619-10.239l8.691-8.096c3.333-3.095,4.048-8.096,1.785-12.144l-12.857-22.145
	c-2.263-3.929-7.024-5.833-11.43-4.524l-11.311,3.453c-3.69,1.071-7.619,0-10.119-2.857c-2.382-2.619-4.882-5-7.382-7.381
	c-2.857-2.62-3.929-6.548-2.857-10.12l3.452-11.31c1.31-4.405-0.476-9.167-4.523-11.43l-22.145-12.858
	c-3.929-2.262-9.049-1.548-12.144,1.786l-8.096,8.691c-2.62,2.857-6.549,3.81-10.239,2.619c-3.334-1.071-6.667-1.905-10.12-2.738
	c-3.69-0.833-6.667-3.691-7.5-7.381l-2.619-11.549c-1.071-4.524-5.001-7.619-9.644-7.619h-25.597c-4.644,0-8.572,3.214-9.644,7.619
	l-2.62,11.549c-0.833,3.69-3.81,6.548-7.5,7.381c-3.453,0.833-6.786,1.667-10.12,2.738c-3.69,1.19-7.619,0.238-10.238-2.619
	l-8.096-8.691c-3.096-3.334-8.096-4.167-12.145-1.786l-22.144,12.858c-3.93,2.262-5.834,7.024-4.524,11.43l3.452,11.31
	c1.072,3.691,0,7.62-2.857,10.12c-2.619,2.381-5,4.881-7.381,7.381c-2.619,2.738-6.548,3.929-10.12,2.857l-11.311-3.453
	c-4.404-1.31-9.167,0.476-11.429,4.524l-12.858,22.145c-2.262,3.929-1.548,9.048,1.786,12.144l8.69,8.096
	c2.857,2.619,3.811,6.548,2.62,10.239c-1.072,3.333-1.905,6.667-2.738,10.12c-0.834,3.69-3.691,6.667-7.382,7.5l-11.549,2.619
	c-4.523,1.072-7.619,5-7.619,9.644v25.597c0,4.643,3.215,8.572,7.619,9.644l11.549,2.619c3.69,0.833,6.548,3.81,7.382,7.501
	c0.833,3.452,1.666,6.786,2.738,10.119c1.19,3.691,0.237,7.62-2.62,10.239l-8.69,8.096c-3.334,3.096-4.167,8.096-1.786,12.144
	l12.858,22.145c2.262,3.929,7.024,5.834,11.429,4.524l11.311-3.453c3.691-1.071,7.62,0,10.12,2.857c2.381,2.619,4.881,5,7.381,7.382
	c2.857,2.619,3.93,6.548,2.857,10.119l-3.452,11.311c-1.31,4.405,0.477,9.167,4.524,11.43l22.145,12.858
	c3.929,2.262,9.048,1.547,12.144-1.786l8.096-8.691c2.619-2.857,6.548-3.81,10.238-2.619c3.334,1.071,6.668,1.905,10.12,2.738
	c3.69,0.833,6.667,3.69,7.501,7.382l2.619,11.548c1.071,4.524,5,7.62,9.644,7.62h25.597c4.643,0,8.572-3.215,9.644-7.62
	l2.619-11.548c0.833-3.691,3.81-6.549,7.5-7.382c3.453-0.833,6.786-1.667,10.12-2.738c3.69-1.19,7.619-0.238,10.239,2.619
	l8.096,8.691c3.095,3.333,8.096,4.167,12.144,1.786l22.145-12.858c3.929-2.263,5.834-7.024,4.523-11.43l-3.452-11.311
	c-1.071-3.69,0-7.619,2.857-10.119c2.619-2.382,5-4.882,7.382-7.382c2.619-2.857,6.548-3.929,10.119-2.857l11.311,3.453
	c4.405,1.31,9.167-0.477,11.43-4.524l12.857-22.145c2.263-3.929,1.548-9.048-1.785-12.144l-8.691-8.096
	c-2.857-2.619-3.81-6.548-2.619-10.239c1.071-3.333,1.904-6.667,2.738-10.119c0.833-3.691,3.69-6.667,7.381-7.501l11.549-2.619
	c4.524-1.072,7.619-5,7.619-9.644v-25.597C466.104,350.583,462.89,346.535,458.485,345.583z M297.64,461.424
	c-51.551,0-93.459-41.907-93.459-93.458s41.908-93.459,93.459-93.459c51.552,0,93.459,41.908,93.459,93.459
	S349.192,461.424,297.64,461.424z"/>
</svg>
