<?xml version="1.0" encoding="utf-8"?>
<!-- Generator: Adobe Illustrator 16.0.0, SVG Export Plug-In . SVG Version: 6.00 Build 0)  -->
<!DOCTYPE svg PUBLIC "-//W3C//DTD SVG 1.1//EN" "http://www.w3.org/Graphics/SVG/1.1/DTD/svg11.dtd">
<svg version="1.1" id="eliminar" xmlns="http://www.w3.org/2000/svg" xmlns:xlink="http://www.w3.org/1999/xlink" x="0px" y="0px"
	 width="595.279px" height="841.891px" viewBox="0 0 595.279 841.891" enable-background="new 0 0 595.279 841.891"
	 xml:space="preserve">
<g>
	<path fill="#FFFFFF" d="M332.88,200.691h-70.361c-17.739,0-32.146,14.406-32.146,32.145s14.406,32.145,32.146,32.145h70.361
		c17.739,0,32.146-14.406,32.146-32.145S350.619,200.691,332.88,200.691z M320.023,247.6h-44.884
		c-11.311,0-20.478-6.667-20.478-14.763c0-8.215,9.167-14.763,20.478-14.763h44.884c11.31,0,20.478,6.667,20.478,14.763
		C340.619,241.051,331.451,247.6,320.023,247.6z"/>
	<rect x="162.512" y="233.908" fill="#FFFFFF" width="270.376" height="37.383"/>
	<path fill="#FFFFFF" d="M173.941,304.032l18.335,206.205c2.619,28.931,19.525,25.478,19.525,25.478h171.797
		c15.716,0,19.525-25.478,19.525-25.478l18.335-206.205c1.548-17.621-18.335-17.382-18.335-17.382H192.276
		C192.276,286.769,172.036,281.888,173.941,304.032z"/>
	<path fill="#FFFFFF" d="M235.255,497.26c0.237,4.882-4.167,9.049-10.001,9.405l0,0c-5.834,0.357-10.715-3.333-10.953-8.215
		l-10.12-173.345c-0.238-4.881,4.167-9.167,10.001-9.405l0,0c5.834-0.357,10.715,3.333,10.953,8.215L235.255,497.26z"/>
	<path fill="#FFFFFF" d="M282.52,497.855c0,4.881-4.643,8.929-10.477,8.929l0,0c-5.834,0-10.478-3.929-10.596-8.81l-0.715-173.703
		c0-4.881,4.644-8.929,10.477-8.929l0,0c5.834,0,10.478,3.929,10.597,8.81L282.52,497.855z"/>
	<path fill="#FFFFFF" d="M360.026,497.26c-0.238,4.882,4.167,9.049,10,9.405l0,0c5.834,0.357,10.716-3.333,10.953-8.215
		l10.12-173.345c0.238-4.881-4.167-9.167-10.001-9.405l0,0c-5.833-0.357-10.715,3.333-10.953,8.215L360.026,497.26z"/>
	<path fill="#FFFFFF" d="M312.76,497.855c0,4.881,4.644,8.929,10.477,8.929l0,0c5.834,0,10.478-3.929,10.597-8.81l0.833-173.703
		c0-4.881-4.644-8.929-10.477-8.929l0,0c-5.834,0-10.478,3.929-10.597,8.81L312.76,497.855z"/>
</g>
</svg>
