<?xml version="1.0" encoding="utf-8"?>
<!-- Generator: Adobe Illustrator 16.0.0, SVG Export Plug-In . SVG Version: 6.00 Build 0)  -->
<!DOCTYPE svg PUBLIC "-//W3C//DTD SVG 1.1//EN" "http://www.w3.org/Graphics/SVG/1.1/DTD/svg11.dtd">
<svg version="1.1" id="foto" xmlns="http://www.w3.org/2000/svg" xmlns:xlink="http://www.w3.org/1999/xlink" x="0px" y="0px"
	 width="595.279px" height="841.891px" viewBox="0 0 595.279 841.891" enable-background="new 0 0 595.279 841.891"
	 xml:space="preserve">
<g>
	<g>
		<path fill="#FFFFFF" d="M304.426,285.578c-68.576,0-124.294,55.6-124.294,124.295c0,68.576,55.599,124.294,124.294,124.294
			s124.295-55.599,124.295-124.294S373.121,285.578,304.426,285.578z M304.426,498.331c-48.932,0-88.458-39.646-88.458-88.458
			c0-48.813,39.646-88.459,88.458-88.459c48.932,0,88.459,39.646,88.459,88.459C392.885,458.686,353.358,498.331,304.426,498.331z"
			/>
		<path fill="#FFFFFF" d="M393.004,220.217c0-10.834-11.191-19.525-25.002-19.525H256.804c-13.811,0-25.002,8.81-25.002,19.525
			v22.263h161.083v-22.263H393.004z"/>
		<path fill="#FFFFFF" d="M212.515,230.574c0-7.262-5.834-13.096-13.096-13.096h-46.551c-7.263,0-13.097,5.833-13.097,13.096v11.906
			h72.624v-11.906H212.515z"/>
		<path fill="#FFFFFF" d="M457.889,251.528H137.391c-24.288,0-44.051,19.763-44.051,44.051v165.606
			c0,24.288,19.763,44.051,44.051,44.051h69.171c-25.12-25.716-38.812-59.527-38.812-95.482c0-36.55,14.167-70.838,40.003-96.674
			c25.835-25.835,60.123-40.002,96.673-40.002s70.839,14.167,96.674,40.002c25.835,25.835,40.003,60.124,40.003,96.674
			c0,35.955-13.811,69.767-38.813,95.482h55.48c24.287,0,44.05-19.763,44.05-44.051V295.579
			C501.821,271.292,482.177,251.528,457.889,251.528z M468.366,302.604h-45.36c-6.786,0-12.144-5.477-12.144-12.144
			c0-6.667,5.477-12.144,12.144-12.144h45.36c6.786,0,12.144,5.477,12.144,12.144C480.51,297.127,475.153,302.604,468.366,302.604z"
			/>
	</g>
</g>
</svg>
