<?xml version="1.0" encoding="utf-8"?>
<!-- Generator: Adobe Illustrator 16.0.0, SVG Export Plug-In . SVG Version: 6.00 Build 0)  -->
<!DOCTYPE svg PUBLIC "-//W3C//DTD SVG 1.1//EN" "http://www.w3.org/Graphics/SVG/1.1/DTD/svg11.dtd">
<svg version="1.1" id="marcar" xmlns="http://www.w3.org/2000/svg" xmlns:xlink="http://www.w3.org/1999/xlink" x="0px" y="0px"
	 width="595.279px" height="841.891px" viewBox="0 0 595.279 841.891" enable-background="new 0 0 595.279 841.891"
	 xml:space="preserve">
<g>
	<path fill="#FFFFFF" d="M502.059,356.893c-0.714-11.43-9.405-27.502-18.93-32.146c-18.216-8.929-23.097-23.93-29.169-39.646
		c-6.429-16.549-13.453-32.859-19.524-49.527c-8.453-23.454-24.764-34.883-49.646-34.526c-15.001,0.238-30.003,0-44.766,0
		c0-0.119,0-0.357,0-0.476h-62.98c-7.262,0.357-14.644,0.595-22.025,0.595c-1.548,0-2.977-0.119-4.405-0.238
		c-12.144,0-25.001,0.357-37.859-0.119c-26.192-0.953-43.099,10.834-52.146,35.479c-8.334,22.859-17.62,45.36-27.025,67.862
		c-2.024,4.762-5.358,10.715-9.644,12.382c-16.43,6.548-25.598,18.93-31.788,34.526v118.937h32.145
		c3.334,25.954-8.571,57.742,28.812,67.028h6.072c35.955-10.119,25.716-40.359,27.859-66.195h221.324
		c3.215,24.646-8.929,56.552,28.217,66.195h6.072c37.502-9.524,25.001-41.788,28.454-66.552c11.311-0.596,21.191-1.072,31.907-1.667
		C502.893,430.708,504.441,393.681,502.059,356.893 M156.559,403.206c-16.311,0-28.812-13.215-28.098-29.407
		c0.596-15.477,13.572-27.621,29.05-27.264c15.239,0.357,27.74,13.453,27.383,28.931
		C184.537,391.181,172.274,403.325,156.559,403.206 M164.416,312.723c9.286-23.811,17.383-46.67,27.383-68.695
		c2.5-5.477,11.311-11.429,17.264-11.429c58.813-0.833,117.627-0.833,176.44,0c6.072,0.119,15.001,5.714,17.501,11.072
		c10.12,21.906,18.216,44.884,27.74,69.052H164.416z M439.317,403.206c-16.072,0.356-29.169-12.263-29.288-28.217
		c-0.119-15.001,12.501-27.978,27.621-28.573c15.716-0.595,29.05,12.382,29.169,28.335
		C466.938,390.109,454.556,402.849,439.317,403.206"/>
</g>
</svg>
